HIERARCHY
ROOT hips
{
  OFFSET 0 10.6860622 2.3727825e-15
  CHANNELS 6 Xposition Yposition Zposition Yrotation Xrotation Zrotation
  JOINT leftUpperLeg
  {
    OFFSET 0.6642549969 -0.9402397400000004 0
    CHANNELS 3 Yrotation Xrotation Zrotation
    JOINT leftLowerLeg
    {
      OFFSET 0 -3.997221335632195 0
      CHANNELS 3 Yrotation Xrotation Zrotation
      JOINT leftFoot
      {
        OFFSET -0.13777839790000004 -4.6145792000000005 -0.22186036399999998
        CHANNELS 3 Yrotation Xrotation Zrotation
        JOINT leftToes
        {
          OFFSET -0.03777410834999995 -0.9130806927000008 0.85230013
          CHANNELS 3 Yrotation Xrotation Zrotation
          End Site
          {
            OFFSET -0.03777410834999995 -0.9130806927000008 0.85230013
          }
        }
      }
    }
  }
  JOINT rightUpperLeg
  {
    OFFSET -0.6642778626 -0.9402397400000004 0
    CHANNELS 3 Yrotation Xrotation Zrotation
    JOINT rightLowerLeg
    {
      OFFSET 0 -3.997221452859387 0
      CHANNELS 3 Yrotation Xrotation Zrotation
      JOINT rightFoot
      {
        OFFSET 0.1377926176 -4.6145792000000005 -0.22185782299999995
        CHANNELS 3 Yrotation Xrotation Zrotation
        JOINT rightToes
        {
          OFFSET 0.037780746850000047 -0.9130806927000008 0.85230167
          CHANNELS 3 Yrotation Xrotation Zrotation
          End Site
          {
            OFFSET 0.037780746850000047 -0.9130806927000008 0.85230167
          }
        }
      }
    }
  }
  JOINT spine
  {
    OFFSET 0 0.13988381660000015 0
    CHANNELS 3 Yrotation Xrotation Zrotation
    JOINT chest
    {
      OFFSET 0 0.6191039003973773 0
      CHANNELS 3 Yrotation Xrotation Zrotation
      JOINT upperChest
      {
        OFFSET 0 0.9855186130586943 0
        CHANNELS 3 Yrotation Xrotation Zrotation
        JOINT leftShoulder
        {
          OFFSET 0.1807663869 1.5087829790000005 0
          CHANNELS 3 Yrotation Xrotation Zrotation
          JOINT leftUpperArm
          {
            OFFSET 0.5985063006419806 0 0
            CHANNELS 3 Yrotation Xrotation Zrotation
            JOINT leftLowerArm
            {
              OFFSET 2.2993332369501065 0 0
              CHANNELS 3 Yrotation Xrotation Zrotation
              JOINT leftHand
              {
                OFFSET 2.395047042602395 0 0
                CHANNELS 3 Yrotation Xrotation Zrotation
                JOINT leftIndexProximal
                {
                  OFFSET 0.5766295810000004 0.04556643899499946 0.17265095988184
                  CHANNELS 3 Yrotation Xrotation Zrotation
                  JOINT leftIndexIntermediate
                  {
                    OFFSET 0.2957229000000008 -0.019352197700001517 -0.007932640616999987
                    CHANNELS 3 Yrotation Xrotation Zrotation
                    JOINT leftIndexDistal
                    {
                      OFFSET 0.19008243099999922 -0.012484908149998475 -0.002786250786000012
                      CHANNELS 3 Yrotation Xrotation Zrotation
                      End Site
                      {
                        OFFSET 0.19008243099999922 -0.012484908149998475 -0.002786250786000012
                      }
                    }
                  }
                }
                JOINT leftMiddleProximal
                {
                  OFFSET 0.5834975091000001 0.0524350405149987 0.02204081888183999
                  CHANNELS 3 Yrotation Xrotation Zrotation
                  JOINT leftMiddleIntermediate
                  {
                    OFFSET 0.33880573540000003 -0.019871473270000717 -0.00000971183179999946
                    CHANNELS 3 Yrotation Xrotation Zrotation
                    JOINT leftMiddleDistal
                    {
                      OFFSET 0.20676022730000088 -0.012221336379999448 0.0001471936708000235
                      CHANNELS 3 Yrotation Xrotation Zrotation
                      End Site
                      {
                        OFFSET 0.20676022730000088 -0.012221336379999448 0.0001471936708000235
                      }
                    }
                  }
                }
                JOINT leftLittleProximal
                {
                  OFFSET 0.5344154683999995 -0.012880921405001189 -0.24414037221816004
                  CHANNELS 3 Yrotation Xrotation Zrotation
                  JOINT leftLittleIntermediate
                  {
                    OFFSET 0.21758961730000093 -0.011650919939999227 0.011893592810000034
                    CHANNELS 3 Yrotation Xrotation Zrotation
                    JOINT leftLittleDistal
                    {
                      OFFSET 0.1475273964999999 -0.008152365682999818 0.006001092492999946
                      CHANNELS 3 Yrotation Xrotation Zrotation
                      End Site
                      {
                        OFFSET 0.1475273964999999 -0.008152365682999818 0.006001092492999946
                      }
                    }
                  }
                }
                JOINT leftRingProximal
                {
                  OFFSET 0.5799399463000003 0.026911854694997794 -0.12150566991816003
                  CHANNELS 3 Yrotation Xrotation Zrotation
                  JOINT leftRingIntermediate
                  {
                    OFFSET 0.26167887460000006 -0.013480186499999602 0.010996293000000053
                    CHANNELS 3 Yrotation Xrotation Zrotation
                    JOINT leftRingDistal
                    {
                      OFFSET 0.17667108799999987 -0.008990287899999228 0.0055541023999999065
                      CHANNELS 3 Yrotation Xrotation Zrotation
                      End Site
                      {
                        OFFSET 0.17667108799999987 -0.008990287899999228 0.0055541023999999065
                      }
                    }
                  }
                }
                JOINT leftThumbProximal
                {
                  OFFSET 0.11018806699999972 -0.09448718900500053 0.17047963138184
                  CHANNELS 3 Yrotation Xrotation Zrotation
                  JOINT leftThumbIntermediate
                  {
                    OFFSET 0.31062601459999983 -0.08126270900000132 0.15443142000000007
                    CHANNELS 3 Yrotation Xrotation Zrotation
                    JOINT leftThumbDistal
                    {
                      OFFSET 0.21627175790000086 -0.08833193599999878 0.018771167799999988
                      CHANNELS 3 Yrotation Xrotation Zrotation
                      End Site
                      {
                        OFFSET 0.21627175790000086 -0.08833193599999878 0.018771167799999988
                      }
                    }
                  }
                }
              }
            }
          }
        }
        JOINT neck
        {
          OFFSET 0 1.5463305265074576 0
          CHANNELS 3 Yrotation Xrotation Zrotation
          JOINT head
          {
            OFFSET 0 0.8456443600000344 0
            CHANNELS 3 Yrotation Xrotation Zrotation
            JOINT leftEye
            {
              OFFSET 0.30408573140000006 0.5104519199999995 0.1276382305
              CHANNELS 3 Yrotation Xrotation Zrotation
              End Site
              {
                OFFSET 0.30408573140000006 0.5104519199999995 0.1276382305
              }
            }
            JOINT rightEye
            {
              OFFSET -0.30409491089999996 0.5104519199999995 0.1276379445
              CHANNELS 3 Yrotation Xrotation Zrotation
              End Site
              {
                OFFSET -0.30409491089999996 0.5104519199999995 0.1276379445
              }
            }
            JOINT jaw
            {
              OFFSET -3.155239131000001e-7 -0.11984121820000082 0.60178107
              CHANNELS 3 Yrotation Xrotation Zrotation
              End Site
              {
                OFFSET -3.155239131000001e-7 -0.11984121820000082 0.60178107
              }
            }
          }
        }
        JOINT rightShoulder
        {
          OFFSET -0.1807303465 1.5087829790000005 0
          CHANNELS 3 Yrotation Xrotation Zrotation
          JOINT rightUpperArm
          {
            OFFSET -0.5985063796536958 0 0
            CHANNELS 3 Yrotation Xrotation Zrotation
            JOINT rightLowerArm
            {
              OFFSET -2.2993322059002854 0 0
              CHANNELS 3 Yrotation Xrotation Zrotation
              JOINT rightHand
              {
                OFFSET -2.395045314457259 0 0
                CHANNELS 3 Yrotation Xrotation Zrotation
                JOINT rightIndexProximal
                {
                  OFFSET -0.5764487688300002 0.0441371204405987 0.17361932004999997
                  CHANNELS 3 Yrotation Xrotation Zrotation
                  JOINT rightIndexIntermediate
                  {
                    OFFSET -0.29573011380000047 -0.01934826376999843 -0.007698921482999974
                    CHANNELS 3 Yrotation Xrotation Zrotation
                    JOINT rightIndexDistal
                    {
                      OFFSET -0.19008373999999884 -0.012503266380000655 -0.0026365778999999897
                      CHANNELS 3 Yrotation Xrotation Zrotation
                      End Site
                      {
                        OFFSET -0.19008373999999884 -0.012503266380000655 -0.0026365778999999897
                      }
                    }
                  }
                }
                JOINT rightMiddleProximal
                {
                  OFFSET -0.5834852037300005 0.05211639405060153 0.02307162440000001
                  CHANNELS 3 Yrotation Xrotation Zrotation
                  JOINT rightMiddleIntermediate
                  {
                    OFFSET -0.33880114510000003 -0.019952774050000954 0.0002455003561999819
                    CHANNELS 3 Yrotation Xrotation Zrotation
                    JOINT rightMiddleDistal
                    {
                      OFFSET -0.20675694929999955 -0.012273788999999091 0.00030209124000002766
                      CHANNELS 3 Yrotation Xrotation Zrotation
                      End Site
                      {
                        OFFSET -0.20675694929999955 -0.012273788999999091 0.00030209124000002766
                      }
                    }
                  }
                }
                JOINT rightLittleProximal
                {
                  OFFSET -0.5346811737299992 -0.011214256288399227 -0.24363941305000003
                  CHANNELS 3 Yrotation Xrotation Zrotation
                  JOINT rightLittleIntermediate
                  {
                    OFFSET -0.21757715980000092 -0.011771559690000988 0.01201554387
                    CHANNELS 3 Yrotation Xrotation Zrotation
                    JOINT rightLittleDistal
                    {
                      OFFSET -0.1475201849000004 -0.00822055339600003 0.006082065407000015
                      CHANNELS 3 Yrotation Xrotation Zrotation
                      End Site
                      {
                        OFFSET -0.1475201849000004 -0.00822055339600003 0.006082065407000015
                      }
                    }
                  }
                }
                JOINT rightRingProximal
                {
                  OFFSET -0.5800810755299999 0.027657985680600072 -0.12066365025000003
                  CHANNELS 3 Yrotation Xrotation Zrotation
                  JOINT rightRingIntermediate
                  {
                    OFFSET -0.26166445029999974 -0.013623118409999302 0.011164098990000045
                    CHANNELS 3 Yrotation Xrotation Zrotation
                    JOINT rightRingDistal
                    {
                      OFFSET -0.17666387530000027 -0.009072900100000503 0.005668185599999959
                      CHANNELS 3 Yrotation Xrotation Zrotation
                      End Site
                      {
                        OFFSET -0.17666387530000027 -0.009072900100000503 0.005668185599999959
                      }
                    }
                  }
                }
                JOINT rightThumbProximal
                {
                  OFFSET -0.10997596379000074 -0.09577489355940072 0.16989765924999997
                  CHANNELS 3 Yrotation Xrotation Zrotation
                  JOINT rightThumbIntermediate
                  {
                    OFFSET -0.31036620999999986 -0.08229339117999834 0.15440884469999996
                    CHANNELS 3 Yrotation Xrotation Zrotation
                    JOINT rightThumbDistal
                    {
                      OFFSET -0.21631306399999906 -0.08825326400000111 0.018656797720000014
                      CHANNELS 3 Yrotation Xrotation Zrotation
                      End Site
                      {
                        OFFSET -0.21631306399999906 -0.08825326400000111 0.018656797720000014
                      }
                    }
                  }
                }
              }
            }
          }
        }
      }
    }
  }
}
MOTION
Frames: 7
Frame Time: 0.03333333333333333
0 -10.269929882817557 0 180 -74.99258324726627 180 4.659031203295173 -37.5873663672155 8.872732987243703 172.46079358160668 55.93081603687325 175.32298285154155 -1.597000619053473 7.354568431127328 10.335923579444366 0 0 0 -4.772275406418414 -27.698035159290196 -7.509191532613658 -166.9087161550264 71.1653874593594 -169.19928786113923 1.5696055677358869 8.490942249592868 -7.967793223055677 0 0 0 -0.7951867166919205 13.837656758264234 -1.1952320246677786 -1.1519376766002156 10.815918247263516 -0.3815136130248865 0 0 0 -10.872940688947537 -7.539277993392092 -0.41576859110108166 -29.27457259558467 16.46212505441922 -91.36896416879847 1.815155845597253 -19.9239156313718 -5.322124809915834 -24.350376444104267 -6.200835975636413 21.715068198385087 0 0 0 0 0 0 0 0 0 0 0 0 0 0 0 0 0 0 0 0 0 0 0 0 0 0 0 0 0 0 0 0 0 0 0 0 0 0 0 0 0 0 0 0 0 -0.1005123736126635 -2.619921829665423 0.9509743657651617 0 15.194528995666893 0 0 0 0 0 0 0 0 0 0 19.162167635833104 -9.657218173157192 17.661584779762798 28.571764348644603 -6.320277493317294 55.57544492531842 0.206081313570374 -42.28921349317503 27.40679979237969 8.935117914428648 20.47672986824056 35.24975965555693 0 0 0 0 0 0 0 0 0 0 0 0 0 0 0 0 0 0 0 0 0 0 0 0 0 0 0 0 0 0 0 0 0 0 0 0 0 0 0 0 0 0 0 0 0
0 -10.269929882817557 0 180 -74.99258324726627 180 4.520650217458556 -37.564812918150544 8.73975232932797 172.46079358160668 55.93081603687325 175.32298285154155 -1.5212626214150553 7.36201145390159 10.111378447449137 0 0 0 -4.662439622447712 -27.68206994853203 -7.415063965545576 -166.9087161550264 71.1653874593594 -169.19928786113923 1.4941235628089802 8.497218885387442 -7.817675969579306 0 0 0 -0.7946089116788123 13.671098904393718 -1.1928345559600222 -1.1532865889691228 11.148756047742127 -0.388367179812247 0 0 0 -10.907964656699207 -7.677385388045957 -0.2889569698477771 -29.27457259558467 16.46212505441922 -91.36896416879847 1.8151559590563973 -19.923917447629446 -5.3221251468500945 -24.537552886020325 -6.544608900687187 20.83836542476002 0 0 0 0 0 0 0 0 0 0 0 0 0 0 0 0 0 0 0 0 0 0 0 0 0 0 0 0 0 0 0 0 0 0 0 0 0 0 0 0 0 0 0 0 0 -0.10052043654565639 -2.4533456843888137 0.9506892678313691 0 15.394409143685161 0 0 0 0 0 0 0 0 0 0 19.17582459331303 -9.814393109505213 17.590087299475847 28.49077124319699 -6.201622205920513 55.64950224849048 0.2060796004257871 -42.28921349317503 27.406801841555176 8.675512591358943 20.502897200871427 35.06210637026408 0 0 0 0 0 0 0 0 0 0 0 0 0 0 0 0 0 0 0 0 0 0 0 0 0 0 0 0 0 0 0 0 0 0 0 0 0 0 0 0 0 0 0 0 0
0 -10.269929882817557 0 180 -74.99258324726627 180 4.382213148367293 -37.542511798622876 8.60671069423496 172.46079358160668 55.93081603687325 175.32298285154155 -1.445535356138176 7.369749024311374 9.886783646049981 0 0 0 -4.552576975627444 -27.66626516536894 -7.32090523320751 -166.9087161550264 71.1653874593594 -169.19928786113923 1.4186479691254839 8.503692448071087 -7.66754727153154 0 0 0 -0.7940386510512146 13.504523519798468 -1.1904397385369203 -1.1546785887924933 11.481740109516888 -0.395239846187843 0 0 0 -10.943312146407031 -7.815434259755993 -0.16200120307084792 -29.27457259558467 16.46212505441922 -91.36896416879847 1.8151559590563973 -19.923917447629446 -5.3221251468500945 -24.720237176247544 -6.892530698772244 19.95878816300662 0 0 0 0 0 0 0 0 0 0 0 0 0 0 0 0 0 0 0 0 0 0 0 0 0 0 0 0 0 0 0 0 0 0 0 0 0 0 0 0 0 0 0 0 0 -0.10052935697229971 -2.2867509810688 0.95040460442997 0 15.594320145890547 0 0 0 0 0 0 0 0 0 0 19.189689358088796 -9.971568984409743 17.518509814970354 28.409942982701168 -6.082850655789778 55.7233824423267 0.2060796004257871 -42.28921349317503 27.406801841555176 8.415704794081979 20.528274029175662 34.874250239877306 0 0 0 0 0 0 0 0 0 0 0 0 0 0 0 0 0 0 0 0 0 0 0 0 0 0 0 0 0 0 0 0 0 0 0 0 0 0 0 0 0 0 0 0 0
0 -10.269929882817557 0 180 -74.99258324726627 180 4.243752352886086 -37.52046277883077 8.473641331105627 172.46079358160668 55.93081603687325 175.32298285154155 -1.369838002033114 7.377781157924852 9.662194466917843 0 0 0 -4.44270098125747 -27.65061881128669 -7.226726125369061 -166.9087161550264 71.1653874593594 -169.19928786113923 1.3431883751565523 8.510361221144894 -7.517424292532797 0 0 0 -0.7934758497315821 13.337946783745872 -1.188048237225776 -1.1561129708394358 11.81472433274841 -0.4021290046055622 0 0 0 -10.978981089874079 -7.953404663174158 -0.034917085824915144 -29.27457259558467 16.46212505441922 -91.36896416879847 1.8151559590563973 -19.923917447629446 -5.3221251468500945 -24.89765277014744 -7.243195322896466 19.079670125013962 0 0 0 0 0 0 0 0 0 0 0 0 0 0 0 0 0 0 0 0 0 0 0 0 0 0 0 0 0 0 0 0 0 0 0 0 0 0 0 0 0 0 0 0 0 -0.10053911942319926 -2.1201563956313896 0.9501198843819462 0 15.794232587394651 0 0 0 0 0 0 0 0 0 0 19.203760760510374 -10.128727035203728 17.44685831853617 28.32928623095396 -5.963975286795544 55.79707994090288 0.2060796004257871 -42.28921349317503 27.406801841555176 8.155766555362291 20.552852670510052 34.686243359453435 0 0 0 0 0 0 0 0 0 0 0 0 0 0 0 0 0 0 0 0 0 0 0 0 0 0 0 0 0 0 0 0 0 0 0 0 0 0 0 0 0 0 0 0 0
0 -10.269929882817557 0 180 -74.99258324726627 180 3.9667056106174723 -37.47713304444419 8.207367246410913 172.46079358160668 55.93081603687325 175.32298285154155 -1.2185057880071015 7.394731762952163 9.212949643264032 0 0 0 -4.22288834770515 -27.61980689594424 -7.038289241333612 -166.9087161550264 71.1653874593594 -169.19928786113923 1.1923030970624868 8.524287029855374 -7.217162576792641 0 0 0 -0.7923724942217002 13.004765243921414 -1.1832759730849758 -1.1591110116936278 12.48093862515032 -0.4159631417636537 0 0 0 -11.05129010268378 -8.22914400641098 0.21967296441506703 -29.27457259558467 16.46212505441922 -91.36896416879847 1.8151559590563973 -19.923917447629446 -5.3221251468500945 -25.237607380227676 -7.954764143391404 17.316801361430247 0 0 0 0 0 0 0 0 0 0 0 0 0 0 0 0 0 0 0 0 0 0 0 0 0 0 0 0 0 0 0 0 0 0 0 0 0 0 0 0 0 0 0 0 0 -0.10056119371265929 -1.7869362133405111 0.9495492412058913 0 16.19410178987163 0 0 0 0 0 0 0 0 0 0 19.23252724867022 -10.44302033905583 17.303310262273957 28.168461826094617 -5.725886861735371 55.94391430503827 0.206081313570374 -42.28921349317503 27.40679979237969 7.63539037984181 20.59962117863124 34.30969061390197 0 0 0 0 0 0 0 0 0 0 0 0 0 0 0 0 0 0 0 0 0 0 0 0 0 0 0 0 0 0 0 0 0 0 0 0 0 0 0 0 0 0 0 0 0
0 -10.269929882817557 0 180 -74.99258324726627 180 3.828124352058278 -37.45584757600307 8.07417122432816 172.46079358160668 55.93081603687325 175.32298285154155 -1.1428763482409428 7.403650268731421 8.98830085551913 0 0 0 -4.112952785120359 -27.6046354164429 -6.944029649776578 -166.9087161550264 71.1653874593594 -169.19928786113923 1.1168804724785957 8.531543223784347 -7.067030293524194 0 0 0 -0.7918319913899002 12.83816029239205 -1.180893981108649 -1.1606754502506018 12.814148983989117 -0.422909850418748 0 0 0 -11.087932085006289 -8.36690663936078 0.3471789286838415 -29.27457259558467 16.46212505441922 -91.36896416879847 1.8151559590563973 -19.923917447629446 -5.3221251468500945 -25.39990209284724 -8.315324113792208 16.4334321375708 0 0 0 0 0 0 0 0 0 0 0 0 0 0 0 0 0 0 0 0 0 0 0 0 0 0 0 0 0 0 0 0 0 0 0 0 0 0 0 0 0 0 0 0 0 -0.10057350560370351 -1.6203131437142333 0.9492642079660587 0 16.39406351864573 0 0 0 0 0 0 0 0 0 0 19.2472252459472 -10.60015533028101 17.231419942927904 28.08830398066363 -5.606689221558178 56.017073447948036 0.206081313570374 -42.28921349317503 27.40679979237969 7.374974784720042 20.621806672130855 34.1211725239841 0 0 0 0 0 0 0 0 0 0 0 0 0 0 0 0 0 0 0 0 0 0 0 0 0 0 0 0 0 0 0 0 0 0 0 0 0 0 0 0 0 0 0 0 0
0 -10.269929882817557 0 180 -74.99258324726627 180 3.6895208365488448 -37.434817614539405 7.940948621089229 172.46079358160668 55.93081603687325 175.32298285154155 -1.0672811504066064 7.4128616844144 8.763659003502495 0 0 0 -4.0030036119990005 -27.58962594736155 -6.8497512710231 -166.9087161550264 71.1653874593594 -169.19928786113923 1.0414759493218086 8.53899467121657 -6.916904224305294 0 0 0 -0.7912988799949857 12.671554536776583 -1.1785152192832447 -1.1622835368533908 13.14735881450552 -0.42987524838282265 0 0 0 -11.12489679580198 -8.504588517235684 0.4748194431593684 -29.27457259558467 16.46212505441922 -91.36896416879847 1.8151559590563973 -19.923917447629446 -5.3221251468500945 -25.556708642857078 -8.678318171206564 15.550265212087059 0 0 0 0 0 0 0 0 0 0 0 0 0 0 0 0 0 0 0 0 0 0 0 0 0 0 0 0 0 0 0 0 0 0 0 0 0 0 0 0 0 0 0 0 0 -0.10058665363780035 -1.453690008392371 0.9489792526772055 0 16.594027653773477 0 0 0 0 0 0 0 0 0 0 19.26213192282286 -10.757271073543128 17.159450950469214 28.008317220597334 -5.487390266424131 56.09004971181518 0.2060796004257871 -42.28921349317503 27.406801841555176 7.114445533893305 20.64319070210246 33.93252195671595 0 0 0 0 0 0 0 0 0 0 0 0 0 0 0 0 0 0 0 0 0 0 0 0 0 0 0 0 0 0 0 0 0 0 0 0 0 0 0 0 0 0 0 0 0
